<svg width="35" height="35" viewBox="0 0 35 35" fill="none" xmlns="http://www.w3.org/2000/svg">
<path d="M24.3541 11.6667C24.0638 10.8431 23.5337 10.1252 22.832 9.60537C22.1303 9.08557 21.289 8.78767 20.4166 8.75H14.5833C13.4229 8.75 12.3101 9.21094 11.4897 10.0314C10.6692 10.8519 10.2083 11.9647 10.2083 13.125C10.2083 14.2853 10.6692 15.3981 11.4897 16.2186C12.3101 17.0391 13.4229 17.5 14.5833 17.5H20.4166C21.5769 17.5 22.6897 17.9609 23.5102 18.7814C24.3306 19.6019 24.7916 20.7147 24.7916 21.875C24.7916 23.0353 24.3306 24.1481 23.5102 24.9686C22.6897 25.7891 21.5769 26.25 20.4166 26.25H14.5833C13.7108 26.2123 12.8696 25.9144 12.1679 25.3946C11.4661 24.8748 10.936 24.1569 10.6458 23.3333M17.4999 4.375V8.75M17.4999 26.25V30.625" stroke="#FFA726" stroke-width="2" stroke-linecap="round" stroke-linejoin="round"/>
</svg>
