<svg width="35" height="35" viewBox="0 0 35 35" fill="none" xmlns="http://www.w3.org/2000/svg">
<path d="M16.0417 26.25L13.125 24.7917M13.125 24.7917L4.375 29.1667V10.2083L13.125 5.83333M13.125 24.7917V5.83333M13.125 5.83333L21.875 10.2083M21.875 10.2083L30.625 5.83333V16.7708M21.875 10.2083V17.5M29.4583 29.4583L32.0833 32.0833M21.875 26.25C21.875 27.4103 22.3359 28.5231 23.1564 29.3436C23.9769 30.1641 25.0897 30.625 26.25 30.625C27.4103 30.625 28.5231 30.1641 29.3436 29.3436C30.1641 28.5231 30.625 27.4103 30.625 26.25C30.625 25.0897 30.1641 23.9769 29.3436 23.1564C28.5231 22.3359 27.4103 21.875 26.25 21.875C25.0897 21.875 23.9769 22.3359 23.1564 23.1564C22.3359 23.9769 21.875 25.0897 21.875 26.25Z" stroke="#FFA726" stroke-width="2" stroke-linecap="round" stroke-linejoin="round"/>
</svg>
